<svg width="18" height="18" viewBox="0 0 18 18" fill="none" xmlns="http://www.w3.org/2000/svg">
<path d="M12.1113 10.4766C12.6387 9.64685 12.948 8.66254 12.948 7.60428C12.948 4.64766 10.5539 2.25 7.60075 2.25C4.64414 2.25 2.25 4.64766 2.25 7.60428C2.25 10.561 4.64414 12.9586 7.5973 12.9586C8.66952 12.9586 9.66794 12.6422 10.5047 12.1008L10.7473 11.9321L14.5652 15.75L15.75 14.5441L11.9355 10.7262L12.1113 10.4766ZM10.5961 4.6125C11.3941 5.41055 11.8336 6.47227 11.8336 7.60075C11.8336 8.72928 11.3941 9.79099 10.5961 10.589C9.79805 11.3871 8.73634 11.8266 7.60781 11.8266C6.47929 11.8266 5.41758 11.3871 4.61953 10.589C3.82149 9.79099 3.38203 8.72928 3.38203 7.60075C3.38203 6.47227 3.82149 5.41055 4.61953 4.6125C5.41758 3.81445 6.47929 3.375 7.60781 3.375C8.73634 3.375 9.79805 3.81445 10.5961 4.6125Z" fill="white"/>
</svg>
